<svg width="20" height="20" viewBox="0 0 16 16" fill="none" xmlns="http://www.w3.org/2000/svg">
<path d="M3.47368 15.235C3.48961 15.6626 3.80275 16 4.18355 16H10.8164C11.1973 16 11.5104 15.6626 11.5263 15.235L12 4H3L3.47368 15.235ZM9.00044 6.79058C9.00044 6.61156 9.12963 6.46637 9.28903 6.46637H9.75061C9.90991 6.46637 10.0392 6.61152 10.0392 6.79058V13.2094C10.0392 13.3885 9.91001 13.5336 9.75061 13.5336H9.28903C9.1297 13.5336 9.00044 13.3886 9.00044 13.2094V6.79058ZM6.98065 6.79058C6.98065 6.61156 7.10984 6.46637 7.26921 6.46637H7.73079C7.89009 6.46637 8.01935 6.61152 8.01935 6.79058V13.2094C8.01935 13.3885 7.89019 13.5336 7.73079 13.5336H7.26921C7.10988 13.5336 6.98065 13.3886 6.98065 13.2094V6.79058ZM4.96079 6.79058C4.96079 6.61156 5.08998 6.46637 5.24935 6.46637H5.71097C5.8703 6.46637 5.99953 6.61152 5.99953 6.79058V13.2094C5.99953 13.3885 5.87033 13.5336 5.71097 13.5336H5.24935C5.09002 13.5336 4.96079 13.3886 4.96079 13.2094V6.79058Z" fill="currentColor"/>
<path d="M12.5339 1.56514H9.33509V1.11562C9.33509 1.05178 9.26547 1 9.17955 1H5.82045C5.73457 1 5.66494 1.05178 5.66494 1.11562V1.56511H2.46608C2.20865 1.56511 2 1.72024 2 1.91159V3H13V1.91162C13 1.72026 12.7913 1.56514 12.5339 1.56514Z" fill="currentColor"/>
</svg>